<svg viewBox="0 0 850.193 1045.38" xmlns="http://www.w3.org/2000/svg"><path d="M850.148 350.378H521.103V21.333h91.978L850.15 258.4zm-260.78-68.266h187.916L589.37 94.197zM424.574 661.31l-129.707-87.017-130.57 86.926L0 551.536V21.333h613.08L850.147 258.4v293.137L685.897 661.22l-130.662-86.927zm130.663-168.937l130.57 86.926 96.075-64.172v-228.42L584.773 89.598H68.266v425.53l96.074 64.17 130.617-86.925L424.664 579.3zM0 643.333L164.34 753.06l130.663-86.926L424.71 753.06l130.57-86.88 130.572 86.925 164.34-109.727v401.954H0zm685.898 191.784L555.236 748.19l-130.662 86.973-129.707-86.926-130.57 86.926-96.03-64.125v206.03h713.615v-206.03z"/></svg>