<svg xmlns="http://www.w3.org/2000/svg" xmlns:xlink="http://www.w3.org/1999/xlink" version="1.1" viewBox="0 0 1000 1000" xml:space="preserve">
<desc>Created with Fabric.js 3.5.0</desc>
<defs>
</defs>
<rect x="0" y="0" width="100%" height="100%" fill="rgba(255,255,255,0)"/>
<g transform="matrix(52.4395 0 0 52.4395 500 500)" id="443502">
<path style="stroke: none; stroke-width: 1; stroke-dasharray: none; stroke-linecap: butt; stroke-dashoffset: 0; stroke-linejoin: miter; stroke-miterlimit: 4; is-custom-font: none; font-file-url: none; fill: #ffffff; fill-rule: nonzero; opacity: 1;" vector-effect="non-scaling-stroke" transform=" translate(-12, -12)" d="M 5.3 18.7 C 5.5 18.9 5.7 19 6 19 s 0.5 -0.1 0.7 -0.3 l 5.3 -5.3 l 5.3 5.3 c 0.2 0.2 0.5 0.3 0.7 0.3 s 0.5 -0.1 0.7 -0.3 c 0.4 -0.4 0.4 -1 0 -1.4 L 13.4 12 l 5.3 -5.3 c 0.4 -0.4 0.4 -1 0 -1.4 s -1 -0.4 -1.4 0 L 12 10.6 L 6.7 5.3 c -0.4 -0.4 -1 -0.4 -1.4 0 s -0.4 1 0 1.4 l 5.3 5.3 l -5.3 5.3 C 4.9 17.7 4.9 18.3 5.3 18.7 z" stroke-linecap="round"/>
</g>
</svg>