<?xml version="1.0" encoding="UTF-8"?>
<!DOCTYPE svg PUBLIC "-//W3C//DTD SVG 1.1//EN" "http://www.w3.org/Graphics/SVG/1.1/DTD/svg11.dtd">
<svg xmlns="http://www.w3.org/2000/svg" version="1.1" viewBox="0 0 512 512" style="shape-rendering:geometricPrecision; text-rendering:geometricPrecision; image-rendering:optimizeQuality; fill-rule:evenodd; clip-rule:evenodd" xmlns:xlink="http://www.w3.org/1999/xlink">
<g><path style="opacity:0.945" fill="#020100" d="M 194.5,157.5 C 195.005,160.521 195.672,163.521 196.5,166.5C 195.298,171.449 192.298,172.782 187.5,170.5C 179.754,146.994 167.421,126.327 150.5,108.5C 138.489,140.392 132.322,173.392 132,207.5C 126.842,212.104 123.342,211.104 121.5,204.5C 121.789,174.101 126.622,144.435 136,115.5C 137.562,109.215 140.062,103.381 143.5,98C 147.16,95.8118 150.826,95.4785 154.5,97C 172.684,113.843 186.017,134.009 194.5,157.5 Z"/></g>
<g><path style="opacity:0.945" fill="#020200" d="M 389.5,204.5 C 387.658,211.104 384.158,212.104 379,207.5C 378.442,174.595 372.775,142.595 362,111.5C 361.333,110.833 360.667,110.167 360,109.5C 343.247,126.991 331.081,147.325 323.5,170.5C 318.702,172.782 315.702,171.449 314.5,166.5C 315.328,163.521 315.995,160.521 316.5,157.5C 324.983,134.009 338.316,113.843 356.5,97C 360.174,95.4785 363.84,95.8118 367.5,98C 370.938,103.381 373.438,109.215 375,115.5C 384.378,144.435 389.211,174.101 389.5,204.5 Z"/></g>
<g><path style="opacity:1" fill="#faca4d" d="M 194.5,157.5 C 195.167,157.5 195.833,157.5 196.5,157.5C 197.744,159.8 199.744,161.134 202.5,161.5C 210.282,158.81 218.282,157.144 226.5,156.5C 228.151,163.274 229.151,170.274 229.5,177.5C 232.588,181.458 235.755,181.458 239,177.5C 239.5,169.841 239.666,162.174 239.5,154.5C 243.167,154.5 246.833,154.5 250.5,154.5C 250.333,165.838 250.5,177.172 251,188.5C 254,192.5 257,192.5 260,188.5C 260.5,177.172 260.667,165.838 260.5,154.5C 264.167,154.5 267.833,154.5 271.5,154.5C 271.334,162.174 271.5,169.841 272,177.5C 275.245,181.458 278.412,181.458 281.5,177.5C 281.849,170.274 282.849,163.274 284.5,156.5C 292.688,157.213 300.688,158.88 308.5,161.5C 311.256,161.134 313.256,159.8 314.5,157.5C 315.167,157.5 315.833,157.5 316.5,157.5C 315.995,160.521 315.328,163.521 314.5,166.5C 315.702,171.449 318.702,172.782 323.5,170.5C 331.081,147.325 343.247,126.991 360,109.5C 360.667,110.167 361.333,110.833 362,111.5C 372.775,142.595 378.442,174.595 379,207.5C 384.158,212.104 387.658,211.104 389.5,204.5C 390.167,205.167 390.833,205.833 391.5,206.5C 390.489,208.402 390.322,210.402 391,212.5C 410.222,235.663 420.056,262.33 420.5,292.5C 414.491,292.334 408.491,292.501 402.5,293C 398.5,296.333 398.5,299.667 402.5,303C 408.157,303.499 413.824,303.666 419.5,303.5C 419.492,306.545 419.159,309.545 418.5,312.5C 414.132,312.63 409.798,312.297 405.5,311.5C 398.421,313.658 397.755,317.158 403.5,322C 406.882,322.176 410.215,322.676 413.5,323.5C 401.942,341.79 385.942,354.624 365.5,362C 355.352,365.62 345.019,368.453 334.5,370.5C 339.354,364.6 341.354,357.767 340.5,350C 340.12,335.267 337.12,321.101 331.5,307.5C 340.874,309.357 349.874,308.19 358.5,304C 359.71,302.961 360.71,301.794 361.5,300.5C 370.395,295.097 376.562,287.431 380,277.5C 392.394,233.576 375.894,211.909 330.5,212.5C 315.614,211.639 301.947,215.139 289.5,223C 286.704,226.114 284.038,229.281 281.5,232.5C 264.775,228.839 247.942,228.506 231,231.5C 229.833,231.167 228.667,230.833 227.5,230.5C 220.57,220.445 210.904,214.945 198.5,214C 180.791,211.032 163.458,212.366 146.5,218C 132.731,225.697 126.398,237.53 127.5,253.5C 127.107,266.479 130.273,278.479 137,289.5C 140.767,293.776 144.934,297.443 149.5,300.5C 152.863,304.52 157.196,307.02 162.5,308C 168.195,308.626 173.862,308.459 179.5,307.5C 171.96,324.037 169.127,341.37 171,359.5C 171.651,363.637 173.485,367.137 176.5,370C 176.272,370.399 175.938,370.565 175.5,370.5C 146.848,366.094 122.682,353.427 103,332.5C 101.167,329.5 99.3333,326.5 97.5,323.5C 101.235,322.847 104.901,322.014 108.5,321C 113.08,315.839 111.913,312.672 105,311.5C 100.863,312.237 96.6966,312.571 92.5,312.5C 91.8413,309.545 91.5079,306.545 91.5,303.5C 97.1764,303.666 102.843,303.499 108.5,303C 112.729,299.157 112.395,295.823 107.5,293C 101.843,292.501 96.1764,292.334 90.5,292.5C 90.4146,262.916 99.9146,236.916 119,214.5C 120.696,211.881 120.863,209.214 119.5,206.5C 120.167,205.833 120.833,205.167 121.5,204.5C 123.342,211.104 126.842,212.104 132,207.5C 132.322,173.392 138.489,140.392 150.5,108.5C 167.421,126.327 179.754,146.994 187.5,170.5C 192.298,172.782 195.298,171.449 196.5,166.5C 195.672,163.521 195.005,160.521 194.5,157.5 Z"/></g>
<g><path style="opacity:0.969" fill="#020100" d="M 314.5,157.5 C 313.256,159.8 311.256,161.134 308.5,161.5C 300.688,158.88 292.688,157.213 284.5,156.5C 283.791,155.596 282.791,155.263 281.5,155.5C 281.5,162.833 281.5,170.167 281.5,177.5C 278.412,181.458 275.245,181.458 272,177.5C 271.5,169.841 271.334,162.174 271.5,154.5C 267.833,154.5 264.167,154.5 260.5,154.5C 260.667,165.838 260.5,177.172 260,188.5C 257,192.5 254,192.5 251,188.5C 250.5,177.172 250.333,165.838 250.5,154.5C 246.833,154.5 243.167,154.5 239.5,154.5C 239.666,162.174 239.5,169.841 239,177.5C 235.755,181.458 232.588,181.458 229.5,177.5C 229.5,170.167 229.5,162.833 229.5,155.5C 228.209,155.263 227.209,155.596 226.5,156.5C 218.282,157.144 210.282,158.81 202.5,161.5C 199.744,161.134 197.744,159.8 196.5,157.5C 196.104,154.956 196.771,152.789 198.5,151C 224.043,143.914 250.043,141.58 276.5,144C 288.728,145.179 300.728,147.512 312.5,151C 314.229,152.789 314.896,154.956 314.5,157.5 Z"/></g>
<g><path style="opacity:1" fill="#55451a" d="M 226.5,156.5 C 227.209,155.596 228.209,155.263 229.5,155.5C 229.5,162.833 229.5,170.167 229.5,177.5C 229.151,170.274 228.151,163.274 226.5,156.5 Z"/></g>
<g><path style="opacity:1" fill="#55451a" d="M 284.5,156.5 C 282.849,163.274 281.849,170.274 281.5,177.5C 281.5,170.167 281.5,162.833 281.5,155.5C 282.791,155.263 283.791,155.596 284.5,156.5 Z"/></g>
<g><path style="opacity:0.946" fill="#030201" d="M 119.5,206.5 C 120.863,209.214 120.696,211.881 119,214.5C 99.9146,236.916 90.4146,262.916 90.5,292.5C 96.1764,292.334 101.843,292.501 107.5,293C 112.395,295.823 112.729,299.157 108.5,303C 102.843,303.499 97.1764,303.666 91.5,303.5C 91.5079,306.545 91.8413,309.545 92.5,312.5C 96.6966,312.571 100.863,312.237 105,311.5C 111.913,312.672 113.08,315.839 108.5,321C 104.901,322.014 101.235,322.847 97.5,323.5C 99.3333,326.5 101.167,329.5 103,332.5C 122.682,353.427 146.848,366.094 175.5,370.5C 201.539,376.287 228.039,378.954 255,378.5C 281.814,378.435 308.314,375.769 334.5,370.5C 345.019,368.453 355.352,365.62 365.5,362C 385.942,354.624 401.942,341.79 413.5,323.5C 410.215,322.676 406.882,322.176 403.5,322C 397.755,317.158 398.421,313.658 405.5,311.5C 409.798,312.297 414.132,312.63 418.5,312.5C 419.159,309.545 419.492,306.545 419.5,303.5C 413.824,303.666 408.157,303.499 402.5,303C 398.5,299.667 398.5,296.333 402.5,293C 408.491,292.501 414.491,292.334 420.5,292.5C 420.056,262.33 410.222,235.663 391,212.5C 390.322,210.402 390.489,208.402 391.5,206.5C 395.441,203.684 398.941,204.35 402,208.5C 421.657,232.966 431.49,260.966 431.5,292.5C 437.842,292.334 444.175,292.5 450.5,293C 454.092,295.971 454.425,299.304 451.5,303C 444.809,303.169 438.142,303.669 431.5,304.5C 430.449,307.757 429.782,311.09 429.5,314.5C 436.994,314.785 444.327,315.951 451.5,318C 454.467,323.436 452.967,326.936 447,328.5C 439.505,326.83 432.005,326.163 424.5,326.5C 413.354,346.811 397.021,361.311 375.5,370C 348.832,380.467 321.165,386.467 292.5,388C 248.362,391.572 204.695,388.572 161.5,379C 135.264,372.973 113.097,360.139 95,340.5C 91.9155,336 89.0821,331.333 86.5,326.5C 78.9952,326.163 71.4952,326.83 64,328.5C 58.0332,326.936 56.5332,323.436 59.5,318C 66.6727,315.951 74.006,314.785 81.5,314.5C 81.2181,311.09 80.5514,307.757 79.5,304.5C 72.8581,303.669 66.1915,303.169 59.5,303C 56.5749,299.304 56.9083,295.971 60.5,293C 66.8246,292.5 73.1579,292.334 79.5,292.5C 79.51,260.966 89.3433,232.966 109,208.5C 111.954,204.141 115.454,203.474 119.5,206.5 Z"/></g>
<g><path style="opacity:1" fill="#050403" d="M 361.5,300.5 C 350.591,304.762 339.258,306.428 327.5,305.5C 299.421,300.755 283.088,284.421 278.5,256.5C 278.5,251.5 278.5,246.5 278.5,241.5C 270.008,240.797 261.508,240.131 253,239.5C 246.127,239.839 239.294,240.506 232.5,241.5C 232.5,246.5 232.5,251.5 232.5,256.5C 228.291,283.709 212.625,299.709 185.5,304.5C 173.057,306.774 161.057,305.441 149.5,300.5C 144.934,297.443 140.767,293.776 137,289.5C 130.273,278.479 127.107,266.479 127.5,253.5C 126.398,237.53 132.731,225.697 146.5,218C 163.458,212.366 180.791,211.032 198.5,214C 210.904,214.945 220.57,220.445 227.5,230.5C 228.667,230.833 229.833,231.167 231,231.5C 247.942,228.506 264.775,228.839 281.5,232.5C 284.038,229.281 286.704,226.114 289.5,223C 301.947,215.139 315.614,211.639 330.5,212.5C 375.894,211.909 392.394,233.576 380,277.5C 376.562,287.431 370.395,295.097 361.5,300.5 Z"/></g>
<g><path style="opacity:1" fill="#434343" d="M 167.5,223.5 C 180.687,222.757 193.687,223.924 206.5,227C 217.607,231.53 222.607,239.864 221.5,252C 219.855,276.981 206.521,290.981 181.5,294C 157.192,297.666 143.026,287.499 139,263.5C 133.801,239.25 143.301,225.916 167.5,223.5 Z"/></g>
<g><path style="opacity:1" fill="#434343" d="M 318.5,223.5 C 330.276,222.976 341.943,223.81 353.5,226C 363.137,227.717 369.304,233.217 372,242.5C 373.773,255.648 372.106,268.315 367,280.5C 361.915,288.24 354.749,292.74 345.5,294C 325.308,297.274 308.808,291.108 296,275.5C 289.421,264.218 287.754,252.218 291,239.5C 294.337,232.508 299.837,228.008 307.5,226C 311.312,225.205 314.979,224.371 318.5,223.5 Z"/></g>
<g><path style="opacity:1" fill="#f7c84f" d="M 278.5,256.5 C 263.171,252.556 247.837,252.556 232.5,256.5C 232.5,251.5 232.5,246.5 232.5,241.5C 239.294,240.506 246.127,239.839 253,239.5C 261.508,240.131 270.008,240.797 278.5,241.5C 278.5,246.5 278.5,251.5 278.5,256.5 Z"/></g>
<g><path style="opacity:1" fill="#fdfdfd" d="M 278.5,256.5 C 283.088,284.421 299.421,300.755 327.5,305.5C 328.671,306.345 330.005,307.011 331.5,307.5C 337.12,321.101 340.12,335.267 340.5,350C 341.354,357.767 339.354,364.6 334.5,370.5C 308.314,375.769 281.814,378.435 255,378.5C 228.039,378.954 201.539,376.287 175.5,370.5C 175.938,370.565 176.272,370.399 176.5,370C 173.485,367.137 171.651,363.637 171,359.5C 169.127,341.37 171.96,324.037 179.5,307.5C 181.75,306.87 183.75,305.87 185.5,304.5C 212.625,299.709 228.291,283.709 232.5,256.5C 247.837,252.556 263.171,252.556 278.5,256.5 Z"/></g>
<g><path style="opacity:1" fill="#080808" d="M 245.5,266.5 C 254.647,265.954 263.647,266.788 272.5,269C 276.663,270.816 277.497,273.649 275,277.5C 271.585,282.125 267.085,285.125 261.5,286.5C 260.505,292.128 260.171,297.794 260.5,303.5C 266.509,303.334 272.509,303.501 278.5,304C 283.701,307.24 283.701,310.574 278.5,314C 263.167,314.667 247.833,314.667 232.5,314C 227.767,311.078 227.434,307.745 231.5,304C 237.825,303.5 244.158,303.334 250.5,303.5C 250.5,297.833 250.5,292.167 250.5,286.5C 243.87,284.932 238.703,281.265 235,275.5C 234.175,273.299 234.675,271.466 236.5,270C 239.459,268.396 242.459,267.229 245.5,266.5 Z"/></g>
<g><path style="opacity:1" fill="#e55c55" d="M 149.5,300.5 C 161.057,305.441 173.057,306.774 185.5,304.5C 183.75,305.87 181.75,306.87 179.5,307.5C 173.862,308.459 168.195,308.626 162.5,308C 157.196,307.02 152.863,304.52 149.5,300.5 Z"/></g>
<g><path style="opacity:1" fill="#e65c55" d="M 361.5,300.5 C 360.71,301.794 359.71,302.961 358.5,304C 349.874,308.19 340.874,309.357 331.5,307.5C 330.005,307.011 328.671,306.345 327.5,305.5C 339.258,306.428 350.591,304.762 361.5,300.5 Z"/></g>
</svg>
